<svg xmlns="http://www.w3.org/2000/svg" width="1600" height="1000" viewBox="0 0 1600 1000">
<defs>
 <radialGradient id="neb1" cx="22%" cy="28%" r="55%">
   <stop offset="0%" stop-color="#15506e" stop-opacity="0.55"/>
   <stop offset="60%" stop-color="#0c2740" stop-opacity="0.25"/>
   <stop offset="100%" stop-color="#05070c" stop-opacity="0"/>
 </radialGradient>
 <radialGradient id="neb2" cx="82%" cy="72%" r="60%">
   <stop offset="0%" stop-color="#3a1e57" stop-opacity="0.40"/>
   <stop offset="55%" stop-color="#1a1740" stop-opacity="0.18"/>
   <stop offset="100%" stop-color="#05070c" stop-opacity="0"/>
 </radialGradient>
 <radialGradient id="neb3" cx="60%" cy="18%" r="40%">
   <stop offset="0%" stop-color="#1c5e6e" stop-opacity="0.30"/>
   <stop offset="100%" stop-color="#05070c" stop-opacity="0"/>
 </radialGradient>
 <radialGradient id="vig" cx="50%" cy="46%" r="75%">
   <stop offset="60%" stop-color="#000000" stop-opacity="0"/>
   <stop offset="100%" stop-color="#000000" stop-opacity="0.55"/>
 </radialGradient>
</defs>
<rect width="1600" height="1000" fill="#05070c"/>
<rect width="1600" height="1000" fill="url(#neb1)"/>
<rect width="1600" height="1000" fill="url(#neb2)"/>
<rect width="1600" height="1000" fill="url(#neb3)"/>
<circle cx="518" cy="151" r="0.6" fill="#ffffff" opacity="0.25"/><circle cx="585" cy="58" r="1.7" fill="#ffffff" opacity="0.35"/><circle cx="694" cy="70" r="0.6" fill="#ffffff" opacity="0.59"/><circle cx="1323" cy="124" r="0.8" fill="#ffffff" opacity="0.64"/><circle cx="923" cy="397" r="0.8" fill="#cfe8ff" opacity="0.23"/><circle cx="463" cy="144" r="0.6" fill="#cfe8ff" opacity="0.60"/><circle cx="165" cy="571" r="0.8" fill="#ffffff" opacity="0.46"/><circle cx="903" cy="619" r="1.3" fill="#fff4e0" opacity="0.68"/><circle cx="1244" cy="466" r="1.3" fill="#cfe8ff" opacity="0.45"/><circle cx="1271" cy="699" r="0.8" fill="#bcdcff" opacity="0.26"/><circle cx="840" cy="875" r="1.3" fill="#ffffff" opacity="0.40"/><circle cx="189" cy="418" r="1.0" fill="#fff4e0" opacity="0.31"/><circle cx="675" cy="962" r="0.6" fill="#bcdcff" opacity="0.74"/><circle cx="544" cy="350" r="1.3" fill="#fff4e0" opacity="0.61"/><circle cx="110" cy="94" r="1.0" fill="#ffffff" opacity="0.53"/><circle cx="97" cy="701" r="1.7" fill="#fff4e0" opacity="0.90"/><circle cx="455" cy="386" r="1.0" fill="#fff4e0" opacity="0.22"/><circle cx="569" cy="611" r="1.3" fill="#bcdcff" opacity="0.24"/><circle cx="207" cy="248" r="1.3" fill="#fff4e0" opacity="0.84"/><circle cx="129" cy="449" r="1.7" fill="#cfe8ff" opacity="0.39"/><circle cx="1311" cy="864" r="1.0" fill="#bcdcff" opacity="0.69"/><circle cx="1092" cy="380" r="0.8" fill="#cfe8ff" opacity="0.31"/><circle cx="242" cy="659" r="0.6" fill="#cfe8ff" opacity="0.54"/><circle cx="420" cy="4" r="1.3" fill="#bcdcff" opacity="0.57"/><circle cx="1525" cy="690" r="1.7" fill="#ffffff" opacity="0.87"/><circle cx="731" cy="871" r="1.7" fill="#fff4e0" opacity="0.47"/><circle cx="631" cy="482" r="1.3" fill="#ffffff" opacity="0.24"/><circle cx="1575" cy="441" r="0.6" fill="#ffffff" opacity="0.44"/><circle cx="164" cy="567" r="1.7" fill="#bcdcff" opacity="0.27"/><circle cx="982" cy="70" r="0.8" fill="#cfe8ff" opacity="0.63"/><circle cx="1015" cy="955" r="1.7" fill="#ffffff" opacity="0.45"/><circle cx="185" cy="488" r="1.3" fill="#bcdcff" opacity="0.54"/><circle cx="137" cy="102" r="1.0" fill="#fff4e0" opacity="0.72"/><circle cx="1326" cy="161" r="0.6" fill="#bcdcff" opacity="0.34"/><circle cx="235" cy="543" r="0.6" fill="#bcdcff" opacity="0.73"/><circle cx="1566" cy="863" r="1.0" fill="#cfe8ff" opacity="0.56"/><circle cx="569" cy="223" r="1.7" fill="#bcdcff" opacity="0.75"/><circle cx="1018" cy="613" r="0.8" fill="#fff4e0" opacity="0.76"/><circle cx="1184" cy="227" r="1.7" fill="#ffffff" opacity="0.54"/><circle cx="1583" cy="790" r="1.3" fill="#bcdcff" opacity="0.38"/><circle cx="716" cy="937" r="1.0" fill="#bcdcff" opacity="0.87"/><circle cx="129" cy="102" r="1.3" fill="#cfe8ff" opacity="0.34"/><circle cx="772" cy="985" r="1.7" fill="#fff4e0" opacity="0.79"/><circle cx="1455" cy="344" r="0.6" fill="#ffffff" opacity="0.78"/><circle cx="1456" cy="782" r="0.8" fill="#cfe8ff" opacity="0.53"/><circle cx="694" cy="636" r="0.6" fill="#fff4e0" opacity="0.76"/><circle cx="741" cy="743" r="0.6" fill="#cfe8ff" opacity="0.71"/><circle cx="1589" cy="28" r="1.7" fill="#cfe8ff" opacity="0.83"/><circle cx="979" cy="596" r="1.3" fill="#bcdcff" opacity="0.66"/><circle cx="249" cy="548" r="0.6" fill="#ffffff" opacity="0.21"/><circle cx="843" cy="934" r="1.3" fill="#cfe8ff" opacity="0.89"/><circle cx="1322" cy="211" r="1.0" fill="#cfe8ff" opacity="0.35"/><circle cx="1222" cy="326" r="1.7" fill="#cfe8ff" opacity="0.49"/><circle cx="97" cy="740" r="1.3" fill="#fff4e0" opacity="0.66"/><circle cx="1323" cy="878" r="0.8" fill="#ffffff" opacity="0.57"/><circle cx="1396" cy="777" r="1.7" fill="#cfe8ff" opacity="0.20"/><circle cx="276" cy="473" r="0.6" fill="#bcdcff" opacity="0.59"/><circle cx="1092" cy="531" r="1.3" fill="#ffffff" opacity="0.75"/><circle cx="1413" cy="57" r="0.8" fill="#ffffff" opacity="0.39"/><circle cx="812" cy="562" r="0.6" fill="#cfe8ff" opacity="0.51"/><circle cx="1108" cy="452" r="1.7" fill="#cfe8ff" opacity="0.77"/><circle cx="1119" cy="877" r="1.0" fill="#cfe8ff" opacity="0.85"/><circle cx="1344" cy="137" r="0.6" fill="#bcdcff" opacity="0.47"/><circle cx="116" cy="241" r="0.6" fill="#bcdcff" opacity="0.35"/><circle cx="1254" cy="897" r="0.8" fill="#bcdcff" opacity="0.86"/><circle cx="229" cy="883" r="1.3" fill="#ffffff" opacity="0.35"/><circle cx="637" cy="487" r="0.8" fill="#fff4e0" opacity="0.31"/><circle cx="1591" cy="404" r="1.3" fill="#bcdcff" opacity="0.34"/><circle cx="148" cy="366" r="1.0" fill="#fff4e0" opacity="0.59"/><circle cx="1125" cy="384" r="1.7" fill="#ffffff" opacity="0.64"/><circle cx="181" cy="919" r="0.8" fill="#ffffff" opacity="0.88"/><circle cx="134" cy="272" r="0.8" fill="#cfe8ff" opacity="0.39"/><circle cx="1312" cy="850" r="1.0" fill="#fff4e0" opacity="0.48"/><circle cx="1121" cy="89" r="0.6" fill="#cfe8ff" opacity="0.76"/><circle cx="681" cy="72" r="0.6" fill="#bcdcff" opacity="0.64"/><circle cx="134" cy="856" r="0.6" fill="#ffffff" opacity="0.39"/><circle cx="726" cy="339" r="1.7" fill="#bcdcff" opacity="0.49"/><circle cx="995" cy="43" r="0.8" fill="#cfe8ff" opacity="0.86"/><circle cx="419" cy="181" r="1.0" fill="#cfe8ff" opacity="0.64"/><circle cx="464" cy="500" r="0.8" fill="#ffffff" opacity="0.39"/><circle cx="1591" cy="37" r="0.6" fill="#cfe8ff" opacity="0.71"/><circle cx="823" cy="246" r="1.3" fill="#fff4e0" opacity="0.27"/><circle cx="1050" cy="546" r="1.3" fill="#bcdcff" opacity="0.88"/><circle cx="1100" cy="982" r="1.0" fill="#cfe8ff" opacity="0.34"/><circle cx="648" cy="348" r="0.6" fill="#ffffff" opacity="0.79"/><circle cx="113" cy="741" r="1.0" fill="#ffffff" opacity="0.50"/><circle cx="135" cy="841" r="1.7" fill="#bcdcff" opacity="0.67"/><circle cx="958" cy="693" r="0.6" fill="#cfe8ff" opacity="0.52"/><circle cx="430" cy="4" r="1.0" fill="#bcdcff" opacity="0.87"/><circle cx="391" cy="966" r="1.0" fill="#cfe8ff" opacity="0.35"/><circle cx="2" cy="382" r="1.3" fill="#cfe8ff" opacity="0.40"/><circle cx="397" cy="776" r="0.6" fill="#ffffff" opacity="0.38"/><circle cx="230" cy="587" r="1.3" fill="#bcdcff" opacity="0.22"/><circle cx="1007" cy="84" r="1.7" fill="#cfe8ff" opacity="0.80"/><circle cx="1052" cy="716" r="1.7" fill="#bcdcff" opacity="0.47"/><circle cx="1153" cy="494" r="1.0" fill="#cfe8ff" opacity="0.71"/><circle cx="70" cy="835" r="1.7" fill="#cfe8ff" opacity="0.64"/><circle cx="1456" cy="753" r="1.7" fill="#ffffff" opacity="0.78"/><circle cx="1322" cy="584" r="0.8" fill="#ffffff" opacity="0.26"/><circle cx="213" cy="361" r="0.6" fill="#fff4e0" opacity="0.46"/><circle cx="894" cy="628" r="1.7" fill="#fff4e0" opacity="0.68"/><circle cx="422" cy="457" r="0.6" fill="#ffffff" opacity="0.72"/><circle cx="1055" cy="66" r="1.3" fill="#ffffff" opacity="0.38"/><circle cx="1354" cy="235" r="0.8" fill="#fff4e0" opacity="0.36"/><circle cx="790" cy="383" r="1.3" fill="#bcdcff" opacity="0.84"/><circle cx="1227" cy="617" r="0.8" fill="#cfe8ff" opacity="0.25"/><circle cx="531" cy="652" r="1.0" fill="#cfe8ff" opacity="0.63"/><circle cx="20" cy="61" r="1.0" fill="#ffffff" opacity="0.88"/><circle cx="1107" cy="676" r="1.0" fill="#bcdcff" opacity="0.70"/><circle cx="743" cy="466" r="0.6" fill="#cfe8ff" opacity="0.90"/><circle cx="499" cy="86" r="1.3" fill="#fff4e0" opacity="0.21"/><circle cx="122" cy="507" r="1.3" fill="#fff4e0" opacity="0.90"/><circle cx="336" cy="946" r="0.8" fill="#ffffff" opacity="0.25"/><circle cx="227" cy="524" r="1.0" fill="#bcdcff" opacity="0.29"/><circle cx="1419" cy="703" r="0.8" fill="#fff4e0" opacity="0.55"/><circle cx="631" cy="159" r="1.3" fill="#fff4e0" opacity="0.68"/><circle cx="483" cy="141" r="1.0" fill="#ffffff" opacity="0.46"/><circle cx="1344" cy="2" r="1.0" fill="#ffffff" opacity="0.79"/><circle cx="1504" cy="196" r="0.6" fill="#bcdcff" opacity="0.83"/><circle cx="405" cy="65" r="1.3" fill="#ffffff" opacity="0.90"/><circle cx="577" cy="428" r="1.0" fill="#bcdcff" opacity="0.80"/><circle cx="163" cy="835" r="1.0" fill="#cfe8ff" opacity="0.64"/><circle cx="399" cy="266" r="1.7" fill="#bcdcff" opacity="0.42"/><circle cx="1256" cy="428" r="0.6" fill="#fff4e0" opacity="0.77"/><circle cx="1461" cy="941" r="1.7" fill="#ffffff" opacity="0.34"/><circle cx="79" cy="732" r="1.3" fill="#cfe8ff" opacity="0.63"/><circle cx="1031" cy="286" r="0.6" fill="#cfe8ff" opacity="0.84"/><circle cx="273" cy="415" r="1.0" fill="#bcdcff" opacity="0.41"/><circle cx="650" cy="239" r="1.3" fill="#fff4e0" opacity="0.59"/><circle cx="192" cy="643" r="0.6" fill="#fff4e0" opacity="0.35"/><circle cx="881" cy="453" r="1.0" fill="#fff4e0" opacity="0.90"/><circle cx="684" cy="548" r="0.8" fill="#bcdcff" opacity="0.26"/><circle cx="889" cy="319" r="1.0" fill="#cfe8ff" opacity="0.38"/><circle cx="1420" cy="750" r="1.3" fill="#cfe8ff" opacity="0.47"/><circle cx="603" cy="338" r="0.6" fill="#bcdcff" opacity="0.55"/><circle cx="201" cy="503" r="0.8" fill="#cfe8ff" opacity="0.26"/><circle cx="615" cy="646" r="1.3" fill="#ffffff" opacity="0.87"/><circle cx="204" cy="425" r="1.3" fill="#fff4e0" opacity="0.88"/><circle cx="0" cy="392" r="1.7" fill="#fff4e0" opacity="0.80"/><circle cx="398" cy="109" r="0.8" fill="#ffffff" opacity="0.31"/><circle cx="1506" cy="722" r="1.3" fill="#ffffff" opacity="0.26"/><circle cx="2" cy="126" r="1.7" fill="#bcdcff" opacity="0.84"/><circle cx="1540" cy="626" r="1.7" fill="#ffffff" opacity="0.65"/><circle cx="159" cy="300" r="1.7" fill="#bcdcff" opacity="0.33"/><circle cx="358" cy="601" r="0.6" fill="#fff4e0" opacity="0.58"/><circle cx="446" cy="316" r="0.8" fill="#cfe8ff" opacity="0.53"/><circle cx="875" cy="29" r="1.3" fill="#bcdcff" opacity="0.69"/><circle cx="88" cy="194" r="1.3" fill="#cfe8ff" opacity="0.26"/><circle cx="1068" cy="925" r="0.8" fill="#bcdcff" opacity="0.55"/><circle cx="1149" cy="362" r="1.3" fill="#bcdcff" opacity="0.34"/><circle cx="1183" cy="505" r="0.8" fill="#cfe8ff" opacity="0.55"/><circle cx="499" cy="820" r="0.8" fill="#bcdcff" opacity="0.53"/><circle cx="1217" cy="295" r="1.7" fill="#cfe8ff" opacity="0.55"/><circle cx="1434" cy="485" r="0.6" fill="#cfe8ff" opacity="0.86"/><circle cx="1475" cy="54" r="0.6" fill="#cfe8ff" opacity="0.88"/><circle cx="665" cy="710" r="0.8" fill="#bcdcff" opacity="0.48"/><circle cx="1172" cy="998" r="0.8" fill="#cfe8ff" opacity="0.43"/><circle cx="1044" cy="525" r="1.3" fill="#fff4e0" opacity="0.22"/><circle cx="1343" cy="985" r="1.3" fill="#ffffff" opacity="0.32"/><circle cx="125" cy="81" r="1.3" fill="#ffffff" opacity="0.87"/><circle cx="898" cy="759" r="1.3" fill="#bcdcff" opacity="0.45"/><circle cx="1315" cy="432" r="0.6" fill="#cfe8ff" opacity="0.69"/><circle cx="596" cy="920" r="0.8" fill="#fff4e0" opacity="0.43"/><circle cx="48" cy="411" r="1.3" fill="#ffffff" opacity="0.23"/><circle cx="742" cy="803" r="0.6" fill="#ffffff" opacity="0.38"/><circle cx="1438" cy="339" r="1.0" fill="#ffffff" opacity="0.43"/><circle cx="419" cy="717" r="1.0" fill="#bcdcff" opacity="0.85"/><circle cx="6" cy="756" r="0.6" fill="#cfe8ff" opacity="0.22"/><circle cx="172" cy="716" r="1.3" fill="#fff4e0" opacity="0.87"/><circle cx="1264" cy="914" r="1.3" fill="#fff4e0" opacity="0.29"/><circle cx="293" cy="803" r="1.0" fill="#cfe8ff" opacity="0.78"/><circle cx="972" cy="328" r="1.0" fill="#ffffff" opacity="0.52"/><circle cx="819" cy="392" r="0.8" fill="#ffffff" opacity="0.37"/><circle cx="1039" cy="482" r="1.7" fill="#fff4e0" opacity="0.43"/><circle cx="1414" cy="988" r="1.0" fill="#cfe8ff" opacity="0.64"/><circle cx="154" cy="498" r="1.3" fill="#cfe8ff" opacity="0.32"/><circle cx="667" cy="620" r="0.8" fill="#ffffff" opacity="0.72"/><circle cx="1248" cy="294" r="1.0" fill="#bcdcff" opacity="0.60"/><circle cx="406" cy="260" r="1.3" fill="#cfe8ff" opacity="0.37"/><circle cx="377" cy="281" r="1.7" fill="#ffffff" opacity="0.33"/><circle cx="634" cy="992" r="1.7" fill="#ffffff" opacity="0.57"/><circle cx="1045" cy="991" r="0.6" fill="#cfe8ff" opacity="0.20"/><circle cx="1345" cy="914" r="0.6" fill="#cfe8ff" opacity="0.81"/><circle cx="191" cy="190" r="1.7" fill="#ffffff" opacity="0.34"/><circle cx="596" cy="866" r="1.3" fill="#ffffff" opacity="0.62"/><circle cx="169" cy="596" r="1.7" fill="#ffffff" opacity="0.44"/><circle cx="590" cy="141" r="0.8" fill="#ffffff" opacity="0.90"/><circle cx="959" cy="652" r="0.8" fill="#bcdcff" opacity="0.77"/><circle cx="654" cy="372" r="1.7" fill="#cfe8ff" opacity="0.42"/><circle cx="50" cy="496" r="1.3" fill="#ffffff" opacity="0.24"/><circle cx="1273" cy="664" r="0.8" fill="#ffffff" opacity="0.65"/><circle cx="1045" cy="398" r="1.0" fill="#bcdcff" opacity="0.49"/><circle cx="1068" cy="418" r="0.6" fill="#bcdcff" opacity="0.42"/><circle cx="663" cy="18" r="1.0" fill="#fff4e0" opacity="0.65"/><circle cx="1165" cy="204" r="0.6" fill="#cfe8ff" opacity="0.50"/><circle cx="678" cy="820" r="1.3" fill="#bcdcff" opacity="0.60"/><circle cx="737" cy="163" r="0.6" fill="#cfe8ff" opacity="0.24"/><circle cx="1025" cy="910" r="0.6" fill="#bcdcff" opacity="0.60"/><circle cx="1180" cy="172" r="1.0" fill="#cfe8ff" opacity="0.40"/><circle cx="1481" cy="109" r="1.3" fill="#cfe8ff" opacity="0.73"/><circle cx="483" cy="837" r="0.6" fill="#fff4e0" opacity="0.88"/><circle cx="503" cy="608" r="1.3" fill="#cfe8ff" opacity="0.26"/><circle cx="1025" cy="857" r="1.7" fill="#cfe8ff" opacity="0.48"/><circle cx="1327" cy="183" r="0.8" fill="#cfe8ff" opacity="0.23"/><circle cx="614" cy="123" r="0.8" fill="#cfe8ff" opacity="0.88"/><circle cx="66" cy="562" r="0.6" fill="#bcdcff" opacity="0.67"/><circle cx="188" cy="600" r="1.7" fill="#bcdcff" opacity="0.79"/><circle cx="1038" cy="308" r="0.8" fill="#bcdcff" opacity="0.50"/><circle cx="715" cy="438" r="0.6" fill="#fff4e0" opacity="0.20"/><circle cx="744" cy="447" r="1.7" fill="#fff4e0" opacity="0.75"/><circle cx="1338" cy="811" r="1.3" fill="#cfe8ff" opacity="0.27"/><circle cx="574" cy="365" r="1.3" fill="#ffffff" opacity="0.55"/><circle cx="65" cy="130" r="1.0" fill="#ffffff" opacity="0.74"/><circle cx="87" cy="504" r="1.3" fill="#cfe8ff" opacity="0.66"/><circle cx="41" cy="66" r="1.7" fill="#ffffff" opacity="0.71"/><circle cx="310" cy="982" r="1.3" fill="#cfe8ff" opacity="0.40"/><circle cx="1098" cy="721" r="0.8" fill="#bcdcff" opacity="0.25"/><circle cx="977" cy="252" r="1.0" fill="#bcdcff" opacity="0.83"/><circle cx="1448" cy="456" r="1.0" fill="#fff4e0" opacity="0.55"/><circle cx="333" cy="263" r="1.7" fill="#bcdcff" opacity="0.37"/><circle cx="59" cy="182" r="0.8" fill="#bcdcff" opacity="0.65"/><circle cx="1087" cy="895" r="0.8" fill="#bcdcff" opacity="0.75"/><circle cx="184" cy="531" r="1.0" fill="#fff4e0" opacity="0.88"/><circle cx="888" cy="580" r="0.6" fill="#fff4e0" opacity="0.38"/><circle cx="1181" cy="371" r="1.3" fill="#cfe8ff" opacity="0.89"/><circle cx="576" cy="765" r="1.3" fill="#ffffff" opacity="0.36"/><circle cx="474" cy="516" r="1.0" fill="#bcdcff" opacity="0.65"/><circle cx="1173" cy="747" r="0.8" fill="#fff4e0" opacity="0.30"/><circle cx="668" cy="364" r="0.6" fill="#cfe8ff" opacity="0.29"/><circle cx="980" cy="46" r="0.6" fill="#bcdcff" opacity="0.20"/><circle cx="486" cy="523" r="1.7" fill="#bcdcff" opacity="0.36"/><circle cx="943" cy="204" r="1.7" fill="#cfe8ff" opacity="0.78"/><circle cx="216" cy="937" r="0.8" fill="#fff4e0" opacity="0.70"/><circle cx="153" cy="638" r="1.0" fill="#bcdcff" opacity="0.48"/><circle cx="1547" cy="56" r="1.7" fill="#fff4e0" opacity="0.82"/><circle cx="963" cy="518" r="1.3" fill="#ffffff" opacity="0.37"/><circle cx="70" cy="532" r="1.3" fill="#cfe8ff" opacity="0.33"/><circle cx="93" cy="779" r="0.6" fill="#cfe8ff" opacity="0.63"/><circle cx="228" cy="200" r="1.7" fill="#fff4e0" opacity="0.65"/><circle cx="1301" cy="175" r="1.0" fill="#ffffff" opacity="0.24"/><circle cx="1590" cy="724" r="1.3" fill="#ffffff" opacity="0.70"/><circle cx="600" cy="437" r="1.3" fill="#fff4e0" opacity="0.26"/><circle cx="281" cy="997" r="1.0" fill="#ffffff" opacity="0.36"/><circle cx="197" cy="891" r="1.0" fill="#bcdcff" opacity="0.70"/><circle cx="1017" cy="679" r="1.7" fill="#bcdcff" opacity="0.88"/><circle cx="1027" cy="965" r="0.8" fill="#ffffff" opacity="0.26"/><circle cx="272" cy="905" r="0.8" fill="#bcdcff" opacity="0.86"/><circle cx="307" cy="389" r="1.7" fill="#fff4e0" opacity="0.37"/><circle cx="755" cy="531" r="0.6" fill="#fff4e0" opacity="0.80"/><circle cx="1529" cy="234" r="1.0" fill="#fff4e0" opacity="0.75"/><circle cx="996" cy="78" r="0.8" fill="#ffffff" opacity="0.30"/><circle cx="179" cy="622" r="0.8" fill="#cfe8ff" opacity="0.44"/><circle cx="1121" cy="31" r="0.8" fill="#ffffff" opacity="0.68"/><circle cx="1115" cy="737" r="0.6" fill="#bcdcff" opacity="0.80"/><circle cx="319" cy="955" r="1.7" fill="#ffffff" opacity="0.82"/><circle cx="1408" cy="756" r="1.3" fill="#cfe8ff" opacity="0.27"/><circle cx="325" cy="34" r="0.6" fill="#bcdcff" opacity="0.78"/><circle cx="763" cy="133" r="0.8" fill="#bcdcff" opacity="0.41"/><circle cx="678" cy="21" r="1.0" fill="#ffffff" opacity="0.85"/><circle cx="1145" cy="368" r="1.0" fill="#fff4e0" opacity="0.74"/>
<circle cx="1362" cy="618" r="6" fill="#9fdcff" opacity="0.10"/><circle cx="1362" cy="618" r="1.6" fill="#eaffff" opacity="0.9"/><circle cx="50" cy="413" r="6" fill="#9fdcff" opacity="0.10"/><circle cx="50" cy="413" r="1.6" fill="#eaffff" opacity="0.9"/><circle cx="698" cy="773" r="6" fill="#9fdcff" opacity="0.10"/><circle cx="698" cy="773" r="1.6" fill="#eaffff" opacity="0.9"/><circle cx="555" cy="705" r="6" fill="#9fdcff" opacity="0.10"/><circle cx="555" cy="705" r="1.6" fill="#eaffff" opacity="0.9"/><circle cx="861" cy="217" r="6" fill="#9fdcff" opacity="0.10"/><circle cx="861" cy="217" r="1.6" fill="#eaffff" opacity="0.9"/><circle cx="1380" cy="91" r="6" fill="#9fdcff" opacity="0.10"/><circle cx="1380" cy="91" r="1.6" fill="#eaffff" opacity="0.9"/><circle cx="1312" cy="170" r="6" fill="#9fdcff" opacity="0.10"/><circle cx="1312" cy="170" r="1.6" fill="#eaffff" opacity="0.9"/>
<rect width="1600" height="1000" fill="url(#vig)"/>
</svg>